HIERARCHY
ROOT Hips
{
	OFFSET -3.958830 18.904000 13.208200
	CHANNELS 6 Xposition Yposition Zposition Zrotation Yrotation Xrotation 
	JOINT LHipJoint
	{
		OFFSET 0.000000 0.000000 0.000000
		CHANNELS 3 Zrotation Yrotation Xrotation
		JOINT LeftUpLeg
		{
			OFFSET 1.800000 -1.400000 0.085000
			CHANNELS 3 Zrotation Yrotation Xrotation
			JOINT LeftLeg
			{
				OFFSET 2.215000 -6.000000 0.000000
				CHANNELS 3 Zrotation Yrotation Xrotation
				JOINT LeftFoot
				{
					OFFSET 2.500000 -6.900000 0.000000
					CHANNELS 3 Zrotation Yrotation Xrotation
					JOINT LeftToeBase
					{
						OFFSET 0.200000 -0.500000 1.950000
						CHANNELS 3 Zrotation Yrotation Xrotation
						End Site
						{
							OFFSET 0.000000 0.000000 0.000000
						}
					}
				}
			}
		}
	}
	JOINT RHipJoint
	{
		OFFSET 0.000000 0.000000 0.000000
		CHANNELS 3 Zrotation Yrotation Xrotation
		JOINT RightUpLeg
		{
			OFFSET -1.800000 -1.400000 0.085000
			CHANNELS 3 Zrotation Yrotation Xrotation
			JOINT RightLeg
			{
				OFFSET -2.215000 -6.000000 0.000000
				CHANNELS 3 Zrotation Yrotation Xrotation
				JOINT RightFoot
				{
					OFFSET -2.500000 -6.900000 0.000000
					CHANNELS 3 Zrotation Yrotation Xrotation
					JOINT RightToeBase
					{
						OFFSET -0.200000 -0.500000 1.950000
						CHANNELS 3 Zrotation Yrotation Xrotation
						End Site
						{
							OFFSET 0.000000 0.000000 0.000000
						}
					}
				}
			}
		}
	}
	JOINT LowerBack
	{
		OFFSET 0.000000 0.000000 0.000000
		CHANNELS 3 Zrotation Yrotation Xrotation
		JOINT Spine
		{
			OFFSET -0.087000 1.940000 -0.288900
			CHANNELS 3 Zrotation Yrotation Xrotation
			JOINT Spine1
			{
				OFFSET 0.000000 1.950000 0.060000
				CHANNELS 3 Zrotation Yrotation Xrotation
				JOINT Neck
				{
					OFFSET 0.000000 0.000000 0.000000
					CHANNELS 3 Zrotation Yrotation Xrotation
					JOINT Neck1
					{
						OFFSET 0.000000 1.600000 0.340000
						CHANNELS 3 Zrotation Yrotation Xrotation
						JOINT Head
						{
							OFFSET 0.000000 1.667000 -0.240000
							CHANNELS 3 Zrotation Yrotation Xrotation
							End Site
							{
								OFFSET 0.000000 0.000000 0.000000
							}
						}
					}
				}
				JOINT LeftShoulder
				{
					OFFSET 0.000000 0.000000 0.000000
					CHANNELS 3 Zrotation Yrotation Xrotation
					JOINT LeftArm
					{
						OFFSET 2.700000 1.550000 -0.730000
						CHANNELS 3 Zrotation Yrotation Xrotation
						JOINT LeftForeArm
						{
							OFFSET 5.450000 0.000000 0.000000
							CHANNELS 3 Zrotation Yrotation Xrotation
							JOINT LeftHand
							{
								OFFSET 3.450000 0.000000 0.000000
								CHANNELS 3 Zrotation Yrotation Xrotation
								JOINT LeftHandIndex1
								{
									OFFSET 0.750000 0.000000 0.000000
									CHANNELS 3 Zrotation Yrotation Xrotation
									End Site
									{
										OFFSET 0.000000 0.000000 0.000000
									}
								}
							}
						}
					}
				}
				JOINT RightShoulder
				{
					OFFSET 0.000000 0.000000 0.000000
					CHANNELS 3 Zrotation Yrotation Xrotation
					JOINT RightArm
					{
						OFFSET -2.700000 1.550000 -0.730000
						CHANNELS 3 Zrotation Yrotation Xrotation
						JOINT RightForeArm
						{
							OFFSET -5.450000 0.000000 0.000000
							CHANNELS 3 Zrotation Yrotation Xrotation
							JOINT RightHand
							{
								OFFSET -3.450000 0.000000 0.000000
								CHANNELS 3 Zrotation Yrotation Xrotation
								JOINT RightHandIndex1
								{
									OFFSET -0.750000 0.000000 0.000000
									CHANNELS 3 Zrotation Yrotation Xrotation
									End Site
									{
										OFFSET 0.000000 0.000000 0.000000
									}
								}
							}
						}
					}
				}
			}
		}
	}
}
MOTION
Frames: 8
Frame Time: 0.016667
-0.371260 16.798730 -6.726100 -9.658213 -50.048259 12.777233 -15.477921 13.084077 4.022076 16.001601 -2.264201 -25.062840 -5.842175 3.314743 -1.466625 -0.138046 3.335424 3.331638 0.063650 0.114190 -0.091140 17.925965 -9.821568 2.739758 -6.792846 0.433348 -4.886035 11.450188 -4.627819 4.583541 -0.185430 -3.699528 3.241565 0.139540 0.307770 -0.056200 -2.590934 -3.843191 -7.995057 5.566905 1.299273 12.538048 -6.458570 2.640206 -7.936075 7.458324 -11.974129 -8.237174 -25.407691 24.097296 20.762148 4.597130 17.924810 1.108530 -24.810782 11.417765 -5.617442 -53.802881 9.819320 -6.422422 -6.833380 5.297642 -0.854922 -4.087914 2.779824 0.056350 0.162570 -0.135480 0.131080 11.579398 -2.503005 7.623270 -14.524568 -36.743898 6.544075 -11.934554 -3.638134 0.698962 2.662657 -1.428885 -0.180770 0.204680 0.039820 -0.022460 
-0.379570 16.799940 -6.714060 -9.691261 -50.227992 12.501618 -15.493386 13.125737 4.029860 16.283788 -2.197061 -24.915299 -6.197043 3.431899 -1.135544 -0.126985 3.383202 3.304773 0.079930 0.130510 -0.077310 17.911034 -9.813218 2.709419 -6.686215 0.342355 -4.695279 11.130253 -4.656491 4.911245 -0.194972 -3.684992 3.243980 0.142560 0.290600 -0.052480 -2.534066 -3.942769 -7.976403 5.220602 1.321622 12.614202 -5.526727 2.682159 -7.701477 7.047414 -12.018063 -8.317609 -25.934891 24.370728 20.875584 4.575140 18.075100 0.815180 -24.724806 11.472049 -5.523236 -53.990657 9.732226 -6.588250 -7.199488 4.561117 -0.900647 -4.066367 2.795470 0.065580 0.149900 -0.120730 0.133130 12.386885 -2.599426 7.803769 -12.346603 -36.443858 6.036648 -11.988702 -4.705673 0.794944 2.697243 -1.391902 -0.170720 0.197460 0.029170 -0.024050 
-0.381430 16.792400 -6.712490 -9.733087 -50.335728 12.443619 -15.555081 13.194416 4.061239 16.869251 -2.110910 -25.527907 -6.924766 3.753621 0.070751 -0.107314 3.471346 3.253696 0.077010 0.123720 -0.077300 17.862528 -9.728790 2.675404 -6.388583 0.274884 -4.629360 10.771305 -4.585174 4.878759 -0.192635 -3.628015 3.263780 0.127610 0.275640 -0.048070 -2.351482 -4.216787 -7.965609 4.084847 1.678943 12.850779 -3.273412 2.996537 -7.553164 6.358955 -12.077075 -8.462831 -26.674006 24.334334 20.582827 4.210880 18.042450 0.539870 -24.077707 11.966242 -5.425589 -54.600911 9.458967 -7.048195 -8.207302 2.490634 -0.985405 -4.038307 2.820159 0.072630 0.136640 -0.110030 0.130450 13.420758 -2.954844 8.272243 -7.252372 -36.199193 4.829952 -12.859847 -6.311891 1.148580 2.792897 -1.323321 -0.159870 0.185410 0.027850 -0.022510 
-0.378630 16.781240 -6.713200 -9.986636 -50.765486 12.345432 -15.586187 13.227668 4.112754 17.887478 -1.978552 -26.192805 -7.731890 4.187345 1.595828 -0.098286 3.625793 3.174211 0.081400 0.128910 -0.074020 17.842005 -9.682005 2.630084 -6.366325 0.223170 -4.650015 10.625721 -4.633482 5.278012 -0.192835 -3.606703 3.264965 0.127740 0.266140 -0.044550 -2.302739 -4.396760 -7.946091 3.761899 1.834203 13.034247 -2.000438 3.168421 -6.935388 5.654760 -12.019670 -8.711248 -27.231013 24.346555 20.380743 4.101450 17.972310 0.189490 -24.147877 11.140971 -5.346658 -53.921661 7.574263 -6.131791 -8.923012 3.371407 -1.003408 -4.034564 2.847785 0.078310 0.128930 -0.101830 0.128240 15.003166 -2.436162 8.835695 -2.215803 -36.749797 3.619477 -13.180298 -6.717237 1.342344 2.836324 -1.290985 -0.154530 0.182000 0.027600 -0.022630 
-0.376030 16.782390 -6.714140 -10.080824 -50.978786 11.861488 -15.614096 13.253613 4.166607 18.773774 -1.841021 -26.038440 -8.533323 4.485352 2.180910 -0.074293 3.792256 3.096460 0.090750 0.133420 -0.056590 17.821165 -9.631621 2.600086 -6.272736 0.058087 -4.145674 10.330209 -4.650246 5.362113 -0.210913 -3.607639 3.260634 0.122550 0.239130 -0.042680 -2.227686 -4.565777 -7.970517 3.430532 2.052966 13.412386 -0.750252 3.458068 -6.512756 5.010548 -11.904594 -8.886994 -27.936907 24.268907 21.273009 3.729340 17.871810 -0.053520 -24.274583 10.515945 -5.217935 -52.481048 5.870865 -5.449351 -9.600350 2.201137 -0.978582 -4.000897 2.874452 0.093910 0.111020 -0.083900 0.122130 16.454542 -2.023178 9.153322 1.795319 -36.614492 2.607892 -12.475126 -7.831495 1.446027 2.866605 -1.240327 -0.145710 0.171920 0.020860 -0.029760 
-0.369200 16.769620 -6.719780 -10.159133 -51.466089 11.544139 -15.618687 13.226471 4.219598 19.394267 -1.814274 -25.446271 -9.017281 4.501336 1.633634 -0.066313 3.908623 3.047221 0.104890 0.147350 -0.029880 17.820793 -9.594889 2.575648 -6.484514 -0.005665 -4.031857 10.347373 -4.681627 5.349312 -0.227664 -3.610790 3.250493 0.130750 0.219640 -0.038910 -2.253601 -4.637400 -7.984296 3.483003 1.818618 13.399745 -0.520832 3.243752 -5.832922 4.459240 -11.586806 -9.044329 -28.010601 24.565995 22.366338 3.566930 18.208760 -0.554830 -24.503118 9.056189 -4.972475 -50.206266 3.245581 -3.816767 -9.276809 3.783586 -0.925109 -4.007077 2.882353 0.108840 0.103990 -0.067120 0.112090 17.685768 -1.149020 9.280326 5.669739 -34.659421 1.474010 -9.807814 -8.716469 1.159130 2.860834 -1.165172 -0.144060 0.171750 0.016470 -0.042720 
-0.363910 16.760780 -6.745760 -10.097472 -51.560400 10.937092 -15.629848 13.280040 4.269666 19.980381 -1.773679 -25.174842 -9.246001 4.603235 1.744633 -0.060774 4.000115 3.004838 0.119300 0.159050 -0.007080 17.807140 -9.573983 2.538954 -6.240519 -0.116280 -3.911237 9.904607 -4.715928 5.904111 -0.236060 -3.574920 3.255751 0.135390 0.199070 -0.037550 -2.188792 -4.803613 -8.005171 2.997048 1.678639 13.821526 0.285774 3.120510 -5.407896 3.808799 -11.248886 -9.227295 -28.069702 24.647374 23.553406 3.614670 18.204820 -0.937260 -24.767688 7.703415 -4.699739 -47.277909 0.845854 -2.528273 -9.234274 4.119703 -0.885347 -3.994139 2.895279 0.125490 0.090970 -0.050110 0.106770 19.285553 -0.322338 9.472417 8.999909 -33.750463 0.663816 -8.008062 -8.043902 0.906175 2.836804 -1.126564 -0.141140 0.170590 0.009140 -0.052400 
-0.344410 16.744590 -6.783570 -9.963265 -52.079674 10.488810 -15.626807 13.344035 4.329814 20.298256 -1.801031 -25.090846 -9.373886 4.638665 1.763189 -0.064703 4.046085 2.979477 0.133150 0.171560 0.019450 17.801254 -9.585035 2.471259 -6.067200 -0.062864 -4.576020 9.591137 -4.861373 7.369033 -0.225918 -3.509072 3.264806 0.141260 0.173500 -0.034070 -2.180064 -4.947927 -7.989583 2.704142 1.232419 14.421277 0.754631 2.680369 -4.667908 3.229141 -11.123214 -9.666357 -28.414432 24.984435 23.580188 2.796490 18.909070 -1.702470 -24.488647 6.026130 -3.945577 -44.214779 -0.771811 -1.775684 -9.611776 3.379977 -0.876003 -3.971407 2.918482 0.139750 0.081710 -0.033530 0.099070 20.222913 1.043238 9.663273 12.150175 -32.009485 -0.259706 -5.575412 -6.724956 0.496273 2.795614 -1.099670 -0.138820 0.163080 0.000930 -0.066880 
